<?xml version="1.0" encoding="UTF-8" standalone="no"?><!-- Generator: Gravit.io --><svg xmlns="http://www.w3.org/2000/svg" xmlns:xlink="http://www.w3.org/1999/xlink" style="isolation:isolate" viewBox="0 0 512 512" width="512pt" height="512pt"><defs><clipPath id="_clipPath_wyThgaUq9QuLvWWbAmfH2TH4er7S81na"><rect width="512" height="512"/></clipPath></defs><g clip-path="url(#_clipPath_wyThgaUq9QuLvWWbAmfH2TH4er7S81na)"><rect x="-26" y="-32" width="581" height="581" transform="matrix(1,0,0,1,0,0)" fill="rgb(235,235,235)"/><path d=" M 256 352.1 C 180.4 352.1 118.9 290.6 118.9 215 C 118.9 139.4 180.4 78 256 78 C 331.6 78 393.1 139.5 393.1 215.1 C 393.1 290.7 331.6 352.1 256 352.1 Z  M 256 98.4 C 191.7 98.4 139.4 150.7 139.4 215 C 139.4 279.3 191.7 331.7 256 331.7 C 320.3 331.7 372.6 279.4 372.6 215.1 C 372.6 150.8 320.3 98.4 256 98.4 Z " fill="rgb(106,110,124)"/><path d=" M 493.9 590 C 488.3 590 483.7 585.4 483.7 579.8 C 483.7 454.3 381.6 352.2 256.1 352.2 C 130.6 352.2 28.5 454.3 28.5 579.8 C 28.5 585.4 23.9 590 18.3 590 C 12.7 590 8.1 585.4 8.1 579.8 C 8.1 513.5 33.9 451.2 80.8 404.4 C 127.7 357.6 190 331.7 256.2 331.7 C 322.4 331.7 384.8 357.5 431.6 404.4 C 478.4 451.3 504.3 513.6 504.3 579.8 C 504.1 585.4 499.5 590 493.9 590 Z " fill="rgb(106,110,124)"/></g></svg>